<svg xmlns="http://www.w3.org/2000/svg" xmlns:xlink="http://www.w3.org/1999/xlink" width="53" height="53"><defs><path id="a" d="M.421.363h52.2v52.2H.42z"/></defs><g fill="none" fill-rule="evenodd"><mask id="b" fill="#fff"><use xlink:href="#a"/></mask><path fill="#000" d="M47.5 46.108a1.026 1.026 0 0 0-1.338.546c-.222.521.043 1.16.57 1.377.511.21 1.117-.047 1.337-.566a1.007 1.007 0 0 0-.57-1.357m-10.542 1.94l.004-7.09-2.11.012-.003 7.088 2.11-.01m-24.159-7.057l-.005 1.687 1.847.01v5.393l2.106-.01.012-5.384 1.846-.025-.005-1.68-5.8.009M5.865 46c.003.786.218 1.297.812 1.652.397.239.857.426 1.312.503 1.091.186 2.176.137 3.12-.554.703-.514.941-1.247.846-2.096-.084-.749-.524-1.228-1.198-1.475-.387-.142-.804-.2-1.208-.294-.389-.091-.788-.154-1.163-.285a.547.547 0 0 1-.302-.388c-.01-.14.113-.347.24-.435.472-.329 1.246-.125 1.548.37.046.075.138.17.212.17.572.011 1.145.001 1.736-.003-.008-.795-.29-1.401-.939-1.764-1.227-.685-2.504-.694-3.76-.073-.857.424-1.267 1.31-1.137 2.245.12.869.715 1.48 1.667 1.695.607.137 1.225.232 1.823.4.168.048.395.298.386.443-.01.161-.232.374-.41.45-.579.247-1.17.058-1.58-.433a.372.372 0 0 0-.247-.124C7.047 45.995 6.47 46 5.866 46m13.817-5.01c0 1.598-.015 3.136.005 4.674.012.944.454 1.668 1.286 2.103.981.512 2.024.558 3.08.244 1.174-.35 1.855-1.267 1.864-2.5.01-1.255.002-2.51 0-3.765 0-.249-.006-.497-.008-.77l-2.095.007c-.004 1.452-.003 2.855-.013 4.258-.006.804-.34 1.187-1.008 1.19-.665.002-.991-.379-1.001-1.195-.008-.598.002-1.196.002-1.793l-.003-2.461-2.11.007m20.483 6.902c1.973.78 4.095.01 4.81-1.748.814-1.998-.003-4.395-1.769-5.038-1.688-.615-3.98-.274-4.79 1.799-.798 2.042-.014 4.291 1.749 4.987m-12.903.179c1.153-.005 2.237.02 3.319-.022 1.515-.06 2.592-.868 2.935-2.3a6.07 6.07 0 0 0 .1-2.125c-.188-1.496-1.098-2.427-2.585-2.58-1.231-.126-2.482-.068-3.763-.093l-.006 7.12M10.738 22.553c2.028-.203 3.288.366 4.387 1.997.316.467.572.976.848 1.47.756 1.353 1.45 2.745 2.274 4.053 1.597 2.534 3.948 3.665 6.929 3.607 3.199-.061 6-2.2 6.895-5.297.384-1.327.281-2.67.246-4.01-.031-1.174-.393-2.262-.99-3.268-1.036-1.743-2.588-2.793-4.49-3.374-.855-.261-1.488-.81-1.74-1.656a5.775 5.775 0 0 1 .029-3.405c.664-2.073 3.72-2.534 5.153-.808.423.51.77 1.1 1.08 1.69.782 1.492 1.456 3.045 2.299 4.5 1.413 2.442 3.549 3.916 6.367 4.23 1.472.163 2.966.138 4.45.19.62.02 1.24.02 1.885.029.1-5.312.2-10.579.302-15.887l-4.545-.073-.219 11.318c-.954 0-1.839-.026-2.655-.47-.987-.539-1.588-1.421-2.083-2.384-.702-1.365-1.339-2.766-2.058-4.122-1.547-2.916-3.876-4.572-7.278-4.595-3.308-.022-6.282 2.104-7.118 5.331-.257.997-.29 2.067-.316 3.106-.09 3.687 1.958 6.464 5.466 7.504.835.247 1.474.78 1.73 1.607.356 1.142.398 2.353.042 3.49-.722 2.3-4.095 2.237-5.144.818a18.907 18.907 0 0 1-1.265-1.943c-.769-1.363-1.427-2.793-2.255-4.117-1.407-2.25-3.418-3.74-6.1-3.956-2.197-.177-4.42-.079-6.63-.1-.023 0-.045.035-.09.073l.158 15.809 4.547-.062-.111-11.295M-.457 53.457L-.33-.521l53.83-.01-.127 53.978-53.83.01" mask="url(#b)"/><path fill="#FEFEFE" d="M10.535 22.488l.11 11.45L6.157 34 6 17.974c.045-.038.067-.073.088-.073 2.183.022 4.377-.078 6.547.101 2.647.22 4.632 1.73 6.021 4.01.817 1.342 1.468 2.792 2.227 4.174.374.681.795 1.341 1.249 1.97 1.035 1.438 4.364 1.502 5.077-.83.352-1.152.31-2.38-.04-3.537-.254-.84-.884-1.379-1.709-1.63-3.463-1.054-5.486-3.869-5.396-7.606.025-1.053.058-2.138.313-3.149.824-3.271 3.76-5.427 7.026-5.404 3.358.024 5.658 1.703 7.185 4.658.71 1.375 1.338 2.794 2.031 4.178.489.976 1.083 1.871 2.057 2.416.805.451 1.679.478 2.62.478l.217-11.473L46 6.331c-.1 5.38-.198 10.72-.299 16.104-.636-.01-1.249-.008-1.86-.03-1.465-.052-2.94-.027-4.393-.193-2.782-.317-4.891-1.812-6.286-4.287-.832-1.475-1.497-3.05-2.27-4.56-.306-.6-.647-1.197-1.065-1.714-1.415-1.75-4.431-1.283-5.088.819a6.01 6.01 0 0 0-.028 3.45c.248.86.874 1.415 1.717 1.68 1.878.588 3.41 1.653 4.433 3.42.59 1.02.947 2.123.977 3.312.035 1.36.136 2.72-.242 4.065-.883 3.14-3.65 5.308-6.808 5.37-2.941.059-5.263-1.088-6.839-3.656-.814-1.326-1.499-2.737-2.245-4.108-.273-.5-.526-1.017-.837-1.491-1.085-1.653-2.33-2.23-4.332-2.024M28.983 42.7l-.001 3.621c.672.006 1.361.113 1.742-.596.416-.773.44-1.612.027-2.397-.382-.728-1.07-.662-1.768-.628M27 47.997L27.006 41c1.2.024 2.372-.033 3.526.091 1.394.15 2.246 1.066 2.421 2.536.082.683.06 1.42-.092 2.089-.322 1.406-1.33 2.2-2.751 2.259-1.013.042-2.029.017-3.11.022m13.296-4.469c-.277.691-.222 1.656.127 2.223.479.78 1.52.85 2.058.105.521-.72.485-1.525.223-2.321-.188-.571-.654-.905-1.176-.914-.558-.009-.994.312-1.232.907m-.288 4.184c-1.717-.662-2.48-2.8-1.704-4.741.788-1.97 3.021-2.294 4.665-1.71 1.72.61 2.516 2.89 1.723 4.789-.697 1.67-2.763 2.402-4.684 1.662m-20.003-6.7l2.027-.007c0 .806.003 1.594.003 2.382 0 .579-.01 1.157-.003 1.735.01.79.324 1.16.963 1.157.641-.002.962-.373.968-1.151.01-1.358.008-2.716.012-4.122L25.987 41c.004.263.008.504.009.745.001 1.215.009 2.43 0 3.644-.009 1.193-.663 2.08-1.792 2.42-1.013.304-2.015.26-2.959-.237-.799-.42-1.223-1.122-1.235-2.035-.02-1.488-.005-2.977-.005-4.525M6 45.866c.593 0 1.16-.007 1.726.003a.37.37 0 0 1 .243.118c.402.467.983.646 1.552.411.174-.072.392-.274.402-.427.01-.137-.214-.375-.38-.42-.586-.16-1.193-.25-1.79-.38-.934-.204-1.517-.785-1.636-1.609-.127-.887.275-1.729 1.117-2.132 1.232-.589 2.486-.58 3.692.07.637.344.914.92.921 1.675-.58.004-1.142.013-1.704.003-.072-.001-.163-.091-.208-.163-.297-.469-1.057-.663-1.521-.35-.124.083-.246.279-.235.412.01.135.163.324.297.37.368.123.76.183 1.142.269.397.09.806.144 1.186.28.662.234 1.094.69 1.176 1.4.094.806-.14 1.501-.83 1.99-.927.655-1.993.702-3.065.526a3.908 3.908 0 0 1-1.288-.478c-.582-.337-.794-.822-.797-1.568m7.006-4.858l5.99-.008c0 .553.003 1.078.004 1.657l-1.905.024-.013 5.31-2.174.009-.002-5.318-1.906-.01.006-1.664m23.99 6.982L35 48l.003-6.989L37 41l-.004 6.99m10.371-1.916c.535.214.773.78.55 1.309-.212.5-.797.749-1.29.546a1.03 1.03 0 0 1-.551-1.328.99.99 0 0 1 1.291-.527"/><path fill="#1D1D1B" d="M29 43.02c.677-.037 1.343-.109 1.712.689.4.86.376 1.78-.026 2.628-.368.776-1.036.66-1.686.653v-3.97m11.127.945c.172-.633.487-.975.89-.965.377.01.713.365.849.973.188.848.215 1.705-.161 2.472-.389.793-1.14.72-1.486-.112-.252-.604-.292-1.631-.092-2.368"/></g></svg>